# xmcd
#
# Track frame offsets:
#	150
#	11472
#	24962
#	39150
#	53708
#	66935
#	79766
#	93281
#	106198
#	119620
#	133911
#	148343
#	165590
#	183363
#	197437
#	212146
#	225372
#	243780
#	260044
#	275148
#
# Disc length: 3850 seconds
#
# Revision: 0
# Processed by: cddbd v1.5.2PL0 Copyright (c) Steve Scherf et al.
# Submitted via: EasyCDDAExtractor 16.0.8.1
#
DISCID=120f0814
DTITLE=Agents - ...Is Hits! 1981-2007
DYEAR=2019
DGENRE=
TTITLE0=Topi Sorsakoski and Agents - Kirje
TTITLE1=Topi Sorsakoski and Agents - Lyhdyn n‰‰n syttyv‰n
TTITLE2=Topi Sorsakoski and Agents - Syd‰nsuruja
TTITLE3=Topi Sorsakoski and Agents - Ajomies
TTITLE4=Topi Sorsakoski and Agents - Kaksi kitaraa
TTITLE5=Topi Sorsakoski and Agents - Vain yksin me kaksi
TTITLE6=Topi Sorsakoski and Agents - Kuinka saatoitkaan
TTITLE7=Topi Sorsakoski and Agents - Niin paljon rakkautta sain
TTITLE8=Topi Sorsakoski and Agents - Kellot soi
TTITLE9=Topi Sorsakoski and Agents - Kuin yˆ
TTITLE10=Agents and Jorma K‰‰ri‰inen - Sin‰ vain (live)
TTITLE11=Agents and Jorma K‰‰ri‰inen - Muistan kes‰n
TTITLE12=Agents and Jorma K‰‰ri‰inen - Moskovan valot
TTITLE13=Agents and Jorma K‰‰ri‰inen - P‰ivin ˆin
TTITLE14=Agents and Jorma K‰‰ri‰inen - Antaudun (kuin hullu rakkauteen)
TTITLE15=Agents and Jorma K‰‰ri‰inen - Pieni sana
TTITLE16=Agents and Jorma K‰‰ri‰inen - M‰ el‰n viel‰kin
TTITLE17=Agents and Jorma K‰‰ri‰inen - Olen syytˆn
TTITLE18=Agents and Jorma K‰‰ri‰inen - Sai kaiken muuttumaan
TTITLE19=Agents and Jorma K‰‰ri‰inen - Ilta
EXTD=
EXTT0=
EXTT1=
EXTT2=
EXTT3=
EXTT4=
EXTT5=
EXTT6=
EXTT7=
EXTT8=
EXTT9=
EXTT10=
EXTT11=
EXTT12=
EXTT13=
EXTT14=
EXTT15=
EXTT16=
EXTT17=
EXTT18=
EXTT19=
PLAYORDER=
